:SAMPLES-PER-SECOND 30
:FRAME-RANGE 1-2775
:FULLY-SPECIFIED
:DEGREES
2429
root  -32.0297 38.5202 41.9753 -173.229 54.6475 -173.642
RightUpLeg  -16.6198 -6.06671 -5.56525
RightLeg  -4.14721 -11.9881 2.98192
RightFoot  1.07678 -1.4593 13.4246
RightToes  -5.28216e-011 1.2921e-014 -6.02303e-014
Spine  7.45306 1.64208 2.055
Spine1  0.636927 2.81665 -4.57325
HEad  -11.8481 16.4941 -4.46702
LeftShoulder1  1.28919 0.0396487 -31.1566
LeftArm  17.1305 8.22238 -34.2499
LeftForeArm  11.8693 -38.0523 -8.04211
LeftHand  0.611108 -5.51594 -6.17705
RightShoulder  7.028 8.4891 51.3212
RightArm  33.1773 -1.60255 13.7363
RightForeArm  -10.1606 26.8322 6.28996
RightHand  0.696217 5.23512 7.27356
LeftUpLeg  6.02504 3.32015 -0.666606
LeftLeg  14.232 -10.1171 -1.51268
LeftFoot  -19.8056 0.725651 8.17948
LeftToes  -2.158e-010 -1.26819e-010 -1.05346e-011
2430
root  -30.9099 38.4279 41.8948 -173.938 52.0367 -173.793
RightUpLeg  -17.9188 -5.31535 -4.52713
RightLeg  1.29396 -7.60821 1.24858
RightFoot  7.32233 -1.47205 9.24672
RightToes  -5.28216e-011 1.2921e-014 -6.02303e-014
Spine  7.68459 2.08442 4.04057
Spine1  0.981217 3.30436 -4.62134
HEad  -10.6743 13.5124 -3.87996
LeftShoulder1  1.24753 0.110697 -30.7036
LeftArm  17.8917 7.31113 -34.2225
LeftForeArm  7.53289 -32.3818 -6.7231
LeftHand  0.470837 -5.15186 -4.87323
RightShoulder  8.1739 10.9138 49.6595
RightArm  30.4056 2.12751 12.1901
RightForeArm  -9.32476 25.9424 6.03954
RightHand  0.732998 5.43055 7.52246
LeftUpLeg  8.12612 1.04454 0.518097
LeftLeg  14.0214 -10.6113 -1.35692
LeftFoot  -20.8536 0.691253 6.79119
LeftToes  -2.158e-010 -1.26819e-010 -1.05346e-011
2431
root  -29.7865 38.2504 41.7658 -174.354 49.8363 -173.305
RightUpLeg  -19.1524 -6.04695 -3.64491
RightLeg  8.35687 -7.58896 0.199862
RightFoot  8.32274 -1.43855 8.61688
RightToes  -5.28216e-011 1.2921e-014 -6.02303e-014
Spine  8.19683 2.22651 6.80492
Spine1  0.942997 3.90362 -5.75927
HEad  -10.2773 10.6801 -3.84341
LeftShoulder1  1.17398 0.312001 -30.7152
LeftArm  18.788 6.9598 -33.311
LeftForeArm  2.24985 -27.5192 -5.81401
LeftHand  0.315964 -4.41527 -3.45798
RightShoulder  9.13823 13.7868 46.2282
RightArm  25.9206 6.83077 10.4254
RightForeArm  -8.14529 23.8868 5.51269
RightHand  0.659176 5.62163 6.60688
LeftUpLeg  9.35527 -3.84556 1.36185
LeftLeg  16.0897 -7.8563 -1.56745
LeftFoot  -22.2708 0.637742 5.26187
LeftToes  -2.158e-010 -1.26819e-010 -1.05346e-011
2432
root  -28.6906 38.0801 41.5959 -174.596 48.0834 -172.501
RightUpLeg  -20.1222 -9.48169 -1.63018
RightLeg  15.36 -4.86486 -0.903406
RightFoot  4.53571 -1.08847 8.01638
RightToes  -5.28216e-011 1.2921e-014 -6.02303e-014
Spine  8.8501 2.16456 9.80774
Spine1  0.972063 4.42523 -6.91457
HEad  -10.6224 8.21097 -4.22913
LeftShoulder1  1.20185 0.263662 -31.0299
LeftArm  19.5629 7.79932 -31.9248
LeftForeArm  -3.41558 -23.6072 -5.2303
LeftHand  0.167227 -3.3949 -1.96954
RightShoulder  9.4334 16.6339 40.6437
RightArm  14.6308 12.3105 8.93297
RightForeArm  -2.83912 20.8139 6.33389
RightHand  0.499539 5.32408 5.08701
LeftUpLeg  9.08881 -6.9454 2.66539
LeftLeg  21.2289 -6.13941 -2.2973
LeftFoot  -23.1459 0.342823 1.97075
LeftToes  -2.158e-010 -1.26819e-010 -1.05346e-011
2433
root  -27.64 37.9628 41.4618 -174.907 45.8113 -172.454
RightUpLeg  -20.5503 -11.5685 -0.57266
RightLeg  20.2845 -4.39701 -1.75225
RightFoot  0.983372 -0.760441 7.09603
RightToes  -5.28216e-011 1.2921e-014 -6.02303e-014
Spine  8.84218 1.9815 11.5989
Spine1  1.4756 4.51323 -6.52746
HEad  -10.8408 6.04987 -4.6009
LeftShoulder1  1.23302 0.182975 -31.0687
LeftArm  16.63 8.86056 -30.1259
LeftForeArm  -3.69897 -19.7452 -7.51932
LeftHand  0.0759022 -2.58215 -0.903737
RightShoulder  9.05481 19.1085 34.0083
RightArm  -2.04288 17.6319 7.04118
RightForeArm  2.68607 19.137 6.88466
RightHand  0.327466 4.75797 3.44488
LeftUpLeg  6.02842 -6.76766 4.76994
LeftLeg  29.5776 -6.75199 -3.79243
LeftFoot  -21.6038 -0.190957 -3.5687
LeftToes  -2.158e-010 -1.26819e-010 -1.05346e-011
2434
root  -26.6804 37.9049 41.3574 -174.411 43.2464 -172.146
RightUpLeg  -20.7032 -12.6073 0.392584
RightLeg  23.2562 -5.61183 -2.56989
RightFoot  -1.91389 -0.565174 6.68757
RightToes  -5.28216e-011 1.2921e-014 -6.02303e-014
Spine  8.95147 1.76285 14.2913
Spine1  1.08036 4.74273 -6.90784
HEad  -10.5779 3.93298 -4.93099
LeftShoulder1  1.29442 -0.00568342 -30.8232
LeftArm  12.9863 9.58552 -28.0162
LeftForeArm  -1.18579 -15.9148 -10.8155
LeftHand  0.0739007 -1.71831 -1.05916
RightShoulder  8.12666 20.8633 27.188
RightArm  -16.9269 22.2254 4.71442
RightForeArm  3.94653 20.5143 5.5869
RightHand  0.178397 4.37799 1.83545
LeftUpLeg  0.075435 -5.20192 7.65255
LeftLeg  40.0015 -6.23015 -5.20976
LeftFoot  -15.3543 -0.287315 -10.7948
LeftToes  -2.158e-010 -1.26819e-010 -1.05346e-011
2435
root  -25.7865 37.8698 41.2154 -174.167 41.5225 -171.783
RightUpLeg  -20.2683 -13.3182 1.34337
RightLeg  25.3211 -6.22614 -3.19652
RightFoot  -4.36835 -0.429915 6.55975
RightToes  -5.28216e-011 1.2921e-014 -6.02303e-014
Spine  9.74842 1.69359 17.6207
Spine1  0.116631 5.43866 -8.72012
HEad  -10.0361 2.13083 -5.0919
LeftShoulder1  1.32484 -0.134341 -30.352
LeftArm  11.2604 10.6298 -26.2861
LeftForeArm  1.1284 -13.264 -12.7882
LeftHand  0.15232 -1.922 -2.26129
RightShoulder  6.99846 22.5911 20.2783
RightArm  -32.6975 26.2732 1.41441
RightForeArm  7.90281 23.0683 4.59629
RightHand  0.0579724 4.50061 0.392651
LeftUpLeg  -6.12712 -3.98229 9.57793
LeftLeg  49.5712 -4.55491 -5.28676
LeftFoot  -5.51989 0.680497 -12.6938
LeftToes  -2.158e-010 -1.26819e-010 -1.05346e-011
2436
root  -24.9259 37.8134 41.0099 -174.418 40.255 -171.755
RightUpLeg  -19.5279 -14.0698 1.86285
RightLeg  27.3215 -6.54859 -3.60696
RightFoot  -6.85684 -0.304699 6.58181
RightToes  -5.28216e-011 1.2921e-014 -6.02303e-014
Spine  10.5801 1.87158 20.38
Spine1  -0.58654 6.30438 -10.182
HEad  -9.44834 0.322245 -5.1393
LeftShoulder1  1.34107 -0.204204 -30.1015
LeftArm  10.8506 11.7744 -24.7947
LeftForeArm  2.58567 -11.8345 -13.718
LeftHand  0.271037 -2.43863 -3.83289
RightShoulder  5.61869 24.3597 13.0268
RightArm  -48.3667 28.9482 -2.31269
RightForeArm  13.2251 26.5211 4.99615
RightHand  -0.0669294 4.83764 -1.0574
LeftUpLeg  -11.3239 -2.41346 10.3033
LeftLeg  56.2863 -1.84228 -2.48037
LeftFoot  0.0817447 0.941575 -9.40533
LeftToes  -2.158e-010 -1.26819e-010 -1.05346e-011
2437
root  -23.9743 38.0101 40.7542 -175.304 39.4047 -172.78
RightUpLeg  -17.5422 -14.6922 1.44033
RightLeg  27.081 -6.91414 -3.45746
RightFoot  -8.3801 -0.219131 6.26559
RightToes  -5.28216e-011 1.2921e-014 -6.02303e-014
Spine  11.0843 2.39736 21.5723
Spine1  -1.21036 7.23854 -12.0724
HEad  -8.76438 -1.45213 -4.69201
LeftShoulder1  1.32855 -0.202004 -29.7806
LeftArm  10.6047 12.9563 -23.8293
LeftForeArm  3.36774 -11.0066 -14.2139
LeftHand  0.401441 -2.76663 -5.50881
RightShoulder  4.03485 25.7714 5.92453
RightArm  -59.4222 30.6597 -5.57866
RightForeArm  14.8372 31.0645 5.9751
RightHand  -0.287774 4.47249 -3.67041
LeftUpLeg  -15.4766 0.575051 9.76494
LeftLeg  59.71 0.198899 0.9175
LeftFoot  -0.834882 0.646702 -6.97487
LeftToes  -2.158e-010 -1.26819e-010 -1.05346e-011
2438
root  -23.0276 38.2448 40.4557 -176.201 38.6861 -174.03
RightUpLeg  -15.3424 -14.2356 0.685677
RightLeg  26.2945 -8.20635 -3.46404
RightFoot  -9.5701 -0.161257 6.21602
RightToes  -5.28216e-011 1.2921e-014 -6.02303e-014
Spine  11.3192 3.0347 22.2034
Spine1  -1.68919 8.11205 -13.8906
HEad  -7.97445 -3.14292 -4.31448
LeftShoulder1  1.29666 -0.153051 -29.3811
LeftArm  10.3389 14.2177 -23.2896
LeftForeArm  3.78169 -10.5424 -14.464
LeftHand  0.455935 -3.19727 -5.93443
RightShoulder  2.27981 26.7864 -1.1277
RightArm  -63.4365 31.7441 -8.33842
RightForeArm  12.6098 35.7718 7.3406
RightHand  -0.538894 3.59424 -7.2093
LeftUpLeg  -18.8839 3.45166 8.37605
LeftLeg  59.7573 0.705371 1.86013
LeftFoot  -1.6491 0.551117 -6.38057
LeftToes  -2.158e-010 -1.26819e-010 -1.05346e-011
2439
root  -22.1032 38.5096 40.1051 -176.915 37.5259 -175.15
RightUpLeg  -12.6984 -13.4633 -0.180539
RightLeg  24.6603 -10.2701 -3.18858
RightFoot  -10.3993 -0.120742 6.08373
RightToes  -5.28216e-011 1.2921e-014 -6.02303e-014
Spine  11.1008 3.59999 22.3581
Spine1  -1.81799 8.66725 -15.1155
HEad  -7.37819 -4.76753 -4.12856
LeftShoulder1  1.25222 -0.081552 -28.8376
LeftArm  9.86874 15.7524 -23.4529
LeftForeArm  3.49716 -10.4087 -14.5144
LeftHand  0.51595 -3.19191 -6.74912
RightShoulder  0.132985 26.439 -9.16425
RightArm  -62.0261 33.2081 -9.9536
RightForeArm  10.8486 39.2209 8.46788
RightHand  -0.732355 2.99569 -10.3484
LeftUpLeg  -21.6447 5.44749 6.4024
LeftLeg  56.808 0.158254 0.765226
LeftFoot  -2.9656 0.487409 -6.41027
LeftToes  -2.158e-010 -1.26819e-010 -1.05346e-011
